<svg width="357" height="75" viewBox="0 0 357 75" fill="none" xmlns="http://www.w3.org/2000/svg">
<g filter="url(#filter0_d_1_519)">
<path d="M26.3592 15.1273H106.346L92.401 40.2571L85.3729 52.3131H18.104C4.18165 50.6847 3.15532 43.0753 4.38245 39.4742L13.8648 22.3296C16.0959 17.7577 22.6778 15.1273 26.3592 15.1273Z" fill="#216900"/>
</g>
<rect x="140.848" y="14.1154" width="216" height="40" rx="20" fill="#216900"/>
<g filter="url(#filter1_d_1_519)">
<path d="M156.213 15.1273H113.486L92.625 52.4696H146.73C154.138 52.4696 158.444 48.6597 159.671 46.7548L169.711 28.4359C171.853 19.1669 161.604 15.7014 156.213 15.1273Z" fill="white"/>
</g>
<g filter="url(#filter2_d_1_519)">
<mask id="path-4-inside-1_1_519" fill="white">
<ellipse cx="100.497" cy="33.8376" rx="11.7135" ry="8.22"/>
</mask>
<ellipse cx="100.497" cy="33.8376" rx="11.7135" ry="8.22" fill="#216900"/>
<path d="M112.21 33.8376H101.21C101.21 32.7851 101.529 31.9224 101.869 31.3589C102.029 31.0926 102.181 30.9123 102.285 30.8044C102.389 30.6968 102.455 30.6499 102.461 30.6459C102.463 30.6444 102.298 30.756 101.926 30.8663C101.564 30.9738 101.079 31.0576 100.497 31.0576V42.0576V53.0576C105.717 53.0576 110.914 51.5902 115.098 48.6541C119.249 45.7411 123.21 40.6696 123.21 33.8376H112.21ZM100.497 42.0576V31.0576C99.9147 31.0576 99.4295 30.9738 99.0673 30.8663C98.6956 30.756 98.5307 30.6444 98.5327 30.6459C98.5384 30.6499 98.6046 30.6968 98.7082 30.8044C98.8121 30.9123 98.9643 31.0926 99.1248 31.3589C99.4645 31.9224 99.7832 32.7851 99.7832 33.8376H88.7832H77.7832C77.7832 40.6696 81.7443 45.7411 85.8953 48.6541C90.0793 51.5902 95.2761 53.0576 100.497 53.0576V42.0576ZM88.7832 33.8376H99.7832C99.7832 34.8901 99.4645 35.7527 99.1248 36.3163C98.9643 36.5825 98.8121 36.7628 98.7082 36.8707C98.6046 36.9784 98.5384 37.0253 98.5327 37.0293C98.5307 37.0307 98.6956 36.9191 99.0673 36.8088C99.4295 36.7013 99.9147 36.6176 100.497 36.6176V25.6176V14.6176C95.2761 14.6176 90.0793 16.0849 85.8953 19.021C81.7443 21.934 77.7832 27.0055 77.7832 33.8376H88.7832ZM100.497 25.6176V36.6176C101.079 36.6176 101.564 36.7013 101.926 36.8088C102.298 36.9191 102.463 37.0307 102.461 37.0293C102.455 37.0253 102.389 36.9784 102.285 36.8707C102.181 36.7628 102.029 36.5825 101.869 36.3163C101.529 35.7527 101.21 34.8901 101.21 33.8376H112.21H123.21C123.21 27.0055 119.249 21.934 115.098 19.021C110.914 16.0849 105.717 14.6176 100.497 14.6176V25.6176Z" fill="#216900" mask="url(#path-4-inside-1_1_519)"/>
</g>
<g filter="url(#filter3_d_1_519)">
<path d="M100.61 34.2748L119.935 19.4849" stroke="black" stroke-width="2" stroke-linecap="round"/>
</g>
<g filter="url(#filter4_d_1_519)">
<path d="M100.526 34.2088L88.3268 23.8587" stroke="white" stroke-width="2" stroke-linecap="round"/>
</g>
<g filter="url(#filter5_d_1_519)">
<ellipse cx="100.497" cy="33.8376" rx="3.23516" ry="2.27029" fill="white"/>
</g>
<path d="M49.152 42.0673C49.6353 42.0673 50.0172 42.2027 50.2975 42.4733C50.5778 42.7343 50.718 43.0823 50.718 43.5173V46.1273H35.87V44.6773C35.87 44.397 35.928 44.0973 36.044 43.7783C36.16 43.4593 36.363 43.1693 36.653 42.9083L42.743 36.7748C43.265 36.2528 43.7193 35.755 44.106 35.2813C44.4927 34.8077 44.8117 34.3437 45.063 33.8893C45.3143 33.4253 45.5028 32.9662 45.6285 32.5118C45.7542 32.0478 45.817 31.5597 45.817 31.0473C45.817 30.2063 45.614 29.5635 45.208 29.1188C44.8117 28.6645 44.2027 28.4373 43.381 28.4373C42.714 28.4373 42.1485 28.6162 41.6845 28.9738C41.2302 29.3218 40.916 29.7568 40.742 30.2788C40.539 30.8105 40.2732 31.1633 39.9445 31.3373C39.6158 31.5113 39.147 31.55 38.538 31.4533L36.16 31.0328C36.3147 29.9792 36.6095 29.0608 37.0445 28.2778C37.4892 27.4948 38.0353 26.8423 38.683 26.3203C39.3403 25.7983 40.0895 25.4117 40.9305 25.1603C41.7715 24.8993 42.6753 24.7688 43.642 24.7688C44.686 24.7688 45.6237 24.9235 46.455 25.2328C47.296 25.5325 48.0113 25.953 48.601 26.4943C49.1907 27.0357 49.6402 27.6833 49.9495 28.4373C50.2685 29.1817 50.428 30.0033 50.428 30.9023C50.428 31.6757 50.3168 32.391 50.0945 33.0483C49.8818 33.7057 49.587 34.334 49.21 34.9333C48.833 35.523 48.3932 36.0982 47.8905 36.6588C47.3975 37.2098 46.8707 37.7705 46.31 38.3408L42.1775 42.5748C42.7092 42.4105 43.236 42.2848 43.758 42.1978C44.28 42.1108 44.7633 42.0673 45.208 42.0673H49.152ZM61.8998 37.9203V32.4103C61.8998 32.072 61.9094 31.7095 61.9288 31.3228C61.9578 30.9265 61.9964 30.5157 62.0448 30.0903L56.4623 37.9203H61.8998ZM67.9898 37.9203V40.4433C67.9898 40.6657 67.9124 40.859 67.7578 41.0233C67.6128 41.1877 67.4001 41.2698 67.1198 41.2698H65.8148V46.1273H61.8998V41.2698H53.4028C53.1224 41.2698 52.8663 41.1828 52.6343 41.0088C52.4119 40.8348 52.2718 40.6173 52.2138 40.3563L51.7498 38.1378L61.5228 25.0008H65.8148V37.9203H67.9898Z" fill="white"/>
<path d="M143.994 25.0008V26.8858C143.994 27.4465 143.931 27.9008 143.805 28.2488C143.679 28.5872 143.559 28.8723 143.443 29.1043L136.106 44.6483C135.903 45.0543 135.613 45.4023 135.236 45.6923C134.868 45.9823 134.375 46.1273 133.757 46.1273H130.48L138.02 31.0038C138.242 30.5978 138.464 30.2305 138.687 29.9018C138.919 29.5635 139.175 29.2445 139.455 28.9448H130.161C130.025 28.9448 129.895 28.9207 129.769 28.8723C129.653 28.8143 129.547 28.7418 129.45 28.6548C129.363 28.5582 129.291 28.4518 129.233 28.3358C129.175 28.2102 129.146 28.0845 129.146 27.9588V25.0008H143.994Z" fill="#216900"/>
<g filter="url(#filter6_d_1_519)">
<path d="M186.363 37.6878H182.108V42.2648H179.21V37.6878H174.978V35.1348H179.21V30.5808H182.108V35.1348H186.363V37.6878ZM191.631 32.5013C191.631 34.1726 192.406 35.0083 193.954 35.0083C194.713 35.0083 195.296 34.7821 195.702 34.3298C196.116 33.8698 196.323 33.2603 196.323 32.5013C196.323 32.095 196.262 31.7385 196.139 31.4318C196.024 31.1175 195.859 30.8568 195.645 30.6498C195.438 30.4428 195.185 30.2856 194.886 30.1783C194.587 30.071 194.261 30.0173 193.908 30.0173C193.548 30.0173 193.226 30.0825 192.942 30.2128C192.666 30.3355 192.429 30.508 192.229 30.7303C192.038 30.9526 191.888 31.2171 191.781 31.5238C191.681 31.8228 191.631 32.1486 191.631 32.5013ZM194.483 37.7913C194.591 37.661 194.694 37.5345 194.794 37.4118C194.893 37.2891 194.985 37.1665 195.07 37.0438C194.364 37.4195 193.563 37.6073 192.666 37.6073C192.122 37.6073 191.578 37.5115 191.033 37.3198C190.489 37.1205 189.994 36.8215 189.55 36.4228C189.113 36.0241 188.756 35.522 188.48 34.9163C188.204 34.3106 188.066 33.5938 188.066 32.7658C188.066 32.0068 188.204 31.29 188.48 30.6153C188.764 29.9406 189.163 29.3503 189.676 28.8443C190.198 28.3383 190.819 27.9396 191.539 27.6483C192.26 27.3493 193.065 27.1998 193.954 27.1998C194.859 27.1998 195.668 27.3378 196.381 27.6138C197.094 27.8898 197.696 28.277 198.186 28.7753C198.685 29.2736 199.064 29.8678 199.325 30.5578C199.593 31.2401 199.727 31.9953 199.727 32.8233C199.727 33.9196 199.562 34.901 199.233 35.7673C198.903 36.6336 198.462 37.4501 197.91 38.2168L194.299 43.3458C194.138 43.5681 193.893 43.756 193.563 43.9093C193.241 44.0626 192.873 44.1393 192.459 44.1393H189.17L194.483 37.7913ZM212.77 41.5633V44.1393H203.225V41.5633H206.445V33.1108C206.445 32.8961 206.449 32.6815 206.457 32.4668C206.464 32.2445 206.476 32.0221 206.491 31.7998L204.582 33.3868C204.413 33.5171 204.245 33.5976 204.076 33.6283C203.915 33.6513 203.762 33.6513 203.616 33.6283C203.47 33.5976 203.34 33.5478 203.225 33.4788C203.11 33.4021 203.026 33.3255 202.972 33.2488L201.845 31.7538L207.066 27.3723H210.01V41.5633H212.77ZM226.71 27.3838V28.8788C226.71 29.3235 226.66 29.6838 226.56 29.9598C226.461 30.2281 226.365 30.4543 226.273 30.6383L220.454 42.9663C220.293 43.2883 220.063 43.5643 219.764 43.7943C219.473 44.0243 219.082 44.1393 218.591 44.1393H215.992L221.972 32.1448C222.148 31.8228 222.325 31.5315 222.501 31.2708C222.685 31.0025 222.888 30.7495 223.11 30.5118H215.739C215.632 30.5118 215.528 30.4926 215.428 30.4543C215.336 30.4083 215.252 30.3508 215.175 30.2818C215.106 30.2051 215.049 30.1208 215.003 30.0288C214.957 29.9291 214.934 29.8295 214.934 29.7298V27.3838H226.71ZM234.037 41.6323C234.436 41.6323 234.781 41.571 235.072 41.4483C235.364 41.3256 235.601 41.1608 235.785 40.9538C235.977 40.7391 236.115 40.49 236.199 40.2063C236.291 39.915 236.337 39.6045 236.337 39.2748C236.337 38.9145 236.299 38.5848 236.222 38.2858C236.146 37.9868 236.019 37.7338 235.843 37.5268C235.666 37.3121 235.429 37.1473 235.13 37.0323C234.838 36.9096 234.474 36.8483 234.037 36.8483C233.6 36.8483 233.232 36.9096 232.933 37.0323C232.642 37.1473 232.408 37.3121 232.232 37.5268C232.055 37.7338 231.929 37.9868 231.852 38.2858C231.776 38.5848 231.737 38.9145 231.737 39.2748C231.737 39.6045 231.779 39.915 231.864 40.2063C231.956 40.49 232.094 40.7391 232.278 40.9538C232.469 41.1608 232.707 41.3256 232.991 41.4483C233.282 41.571 233.631 41.6323 234.037 41.6323ZM234.037 29.7988C233.677 29.7988 233.374 29.8563 233.129 29.9713C232.883 30.0863 232.68 30.2396 232.519 30.4313C232.366 30.6153 232.255 30.83 232.186 31.0753C232.117 31.3206 232.082 31.5736 232.082 31.8343C232.082 32.1256 232.109 32.4093 232.163 32.6853C232.216 32.9613 232.316 33.2066 232.462 33.4213C232.607 33.636 232.807 33.8085 233.06 33.9388C233.313 34.0691 233.639 34.1343 234.037 34.1343C234.436 34.1343 234.762 34.0691 235.015 33.9388C235.268 33.8085 235.467 33.636 235.613 33.4213C235.758 33.2066 235.858 32.9613 235.912 32.6853C235.965 32.4093 235.992 32.1256 235.992 31.8343C235.992 31.5736 235.958 31.3206 235.889 31.0753C235.82 30.83 235.705 30.6153 235.544 30.4313C235.39 30.2396 235.187 30.0863 234.934 29.9713C234.689 29.8563 234.39 29.7988 234.037 29.7988ZM237.2 35.3993C237.698 35.5756 238.124 35.7941 238.476 36.0548C238.837 36.3155 239.128 36.6145 239.35 36.9518C239.58 37.2891 239.749 37.661 239.856 38.0673C239.964 38.466 240.017 38.8915 240.017 39.3438C240.017 40.0951 239.872 40.7775 239.58 41.3908C239.297 42.0041 238.89 42.5293 238.361 42.9663C237.84 43.3956 237.211 43.7291 236.475 43.9668C235.739 44.2045 234.927 44.3233 234.037 44.3233C233.148 44.3233 232.335 44.2045 231.599 43.9668C230.863 43.7291 230.231 43.3956 229.702 42.9663C229.18 42.5293 228.774 42.0041 228.483 41.3908C228.199 40.7775 228.057 40.0951 228.057 39.3438C228.057 38.8915 228.111 38.466 228.218 38.0673C228.326 37.661 228.49 37.2891 228.713 36.9518C228.943 36.6145 229.234 36.3155 229.587 36.0548C229.947 35.7941 230.376 35.5756 230.875 35.3993C230.116 35.0543 229.548 34.579 229.173 33.9733C228.797 33.36 228.609 32.624 228.609 31.7653C228.609 31.1136 228.743 30.5118 229.012 29.9598C229.28 29.4001 229.656 28.9171 230.139 28.5108C230.622 28.1045 231.193 27.7863 231.852 27.5563C232.519 27.3186 233.248 27.1998 234.037 27.1998C234.827 27.1998 235.551 27.3186 236.211 27.5563C236.878 27.7863 237.453 28.1045 237.936 28.5108C238.419 28.9171 238.794 29.4001 239.063 29.9598C239.331 30.5118 239.465 31.1136 239.465 31.7653C239.465 32.624 239.277 33.36 238.902 33.9733C238.526 34.579 237.959 35.0543 237.2 35.3993ZM247.356 41.5058C247.724 41.5058 248.065 41.4368 248.379 41.2988C248.701 41.1608 248.977 40.973 249.207 40.7353C249.437 40.49 249.618 40.2063 249.748 39.8843C249.886 39.5546 249.955 39.1981 249.955 38.8148C249.955 38.3855 249.89 38.0021 249.759 37.6648C249.637 37.3275 249.46 37.0438 249.23 36.8138C249 36.5838 248.721 36.4075 248.391 36.2848C248.069 36.1621 247.709 36.1008 247.31 36.1008C246.95 36.1008 246.62 36.166 246.321 36.2963C246.022 36.419 245.761 36.5991 245.539 36.8368C245.324 37.0745 245.156 37.3581 245.033 37.6878C244.91 38.0175 244.849 38.3893 244.849 38.8033C244.849 39.2173 244.899 39.5891 244.998 39.9188C245.098 40.2485 245.251 40.5321 245.458 40.7698C245.665 41.0075 245.926 41.1915 246.24 41.3218C246.555 41.4445 246.927 41.5058 247.356 41.5058ZM246.781 33.8238C247.318 33.6245 247.916 33.5248 248.575 33.5248C249.181 33.5248 249.779 33.6245 250.369 33.8238C250.959 34.0231 251.488 34.3298 251.956 34.7438C252.424 35.1578 252.799 35.683 253.083 36.3193C253.374 36.948 253.52 37.6916 253.52 38.5503C253.52 39.3323 253.374 40.076 253.083 40.7813C252.792 41.479 252.378 42.0923 251.841 42.6213C251.312 43.1426 250.672 43.5566 249.92 43.8633C249.169 44.17 248.337 44.3233 247.425 44.3233C246.49 44.3233 245.65 44.1776 244.906 43.8863C244.163 43.5873 243.53 43.1733 243.009 42.6443C242.495 42.1153 242.1 41.4828 241.824 40.7468C241.556 40.0108 241.422 39.202 241.422 38.3203C241.422 36.672 242.058 34.9968 243.331 33.2948L247.103 28.2003C247.279 27.978 247.532 27.7863 247.862 27.6253C248.199 27.4643 248.583 27.3838 249.012 27.3838H252.186L247.218 33.3178L246.781 33.8238ZM266.931 35.7558C266.931 37.2201 266.774 38.489 266.459 39.5623C266.145 40.6356 265.708 41.525 265.148 42.2303C264.596 42.9356 263.937 43.4608 263.17 43.8058C262.411 44.1508 261.587 44.3233 260.698 44.3233C259.808 44.3233 258.984 44.1508 258.225 43.8058C257.474 43.4608 256.822 42.9356 256.27 42.2303C255.718 41.525 255.285 40.6356 254.971 39.5623C254.664 38.489 254.511 37.2201 254.511 35.7558C254.511 34.2915 254.664 33.0226 254.971 31.9493C255.285 30.876 255.718 29.9866 256.27 29.2813C256.822 28.576 257.474 28.0546 258.225 27.7173C258.984 27.3723 259.808 27.1998 260.698 27.1998C261.587 27.1998 262.411 27.3723 263.17 27.7173C263.937 28.0546 264.596 28.576 265.148 29.2813C265.708 29.9866 266.145 30.876 266.459 31.9493C266.774 33.0226 266.931 34.2915 266.931 35.7558ZM263.251 35.7558C263.251 34.5981 263.178 33.6513 263.032 32.9153C262.887 32.1716 262.691 31.589 262.446 31.1673C262.208 30.7456 261.936 30.4581 261.629 30.3048C261.323 30.1438 261.012 30.0633 260.698 30.0633C260.383 30.0633 260.073 30.1438 259.766 30.3048C259.467 30.4581 259.199 30.7456 258.961 31.1673C258.731 31.589 258.543 32.1716 258.398 32.9153C258.26 33.6513 258.191 34.5981 258.191 35.7558C258.191 36.9211 258.26 37.8718 258.398 38.6078C258.543 39.3438 258.731 39.9265 258.961 40.3558C259.199 40.7775 259.467 41.0688 259.766 41.2298C260.073 41.3831 260.383 41.4598 260.698 41.4598C261.012 41.4598 261.323 41.3831 261.629 41.2298C261.936 41.0688 262.208 40.7775 262.446 40.3558C262.691 39.9265 262.887 39.3438 263.032 38.6078C263.178 37.8718 263.251 36.9211 263.251 35.7558ZM274.04 41.5058C274.408 41.5058 274.749 41.4368 275.063 41.2988C275.385 41.1608 275.661 40.973 275.891 40.7353C276.121 40.49 276.301 40.2063 276.432 39.8843C276.57 39.5546 276.639 39.1981 276.639 38.8148C276.639 38.3855 276.573 38.0021 276.443 37.6648C276.32 37.3275 276.144 37.0438 275.914 36.8138C275.684 36.5838 275.404 36.4075 275.075 36.2848C274.753 36.1621 274.392 36.1008 273.994 36.1008C273.633 36.1008 273.304 36.166 273.005 36.2963C272.706 36.419 272.445 36.5991 272.223 36.8368C272.008 37.0745 271.839 37.3581 271.717 37.6878C271.594 38.0175 271.533 38.3893 271.533 38.8033C271.533 39.2173 271.582 39.5891 271.682 39.9188C271.782 40.2485 271.935 40.5321 272.142 40.7698C272.349 41.0075 272.61 41.1915 272.924 41.3218C273.238 41.4445 273.61 41.5058 274.04 41.5058ZM273.465 33.8238C274.001 33.6245 274.599 33.5248 275.259 33.5248C275.864 33.5248 276.462 33.6245 277.053 33.8238C277.643 34.0231 278.172 34.3298 278.64 34.7438C279.107 35.1578 279.483 35.683 279.767 36.3193C280.058 36.948 280.204 37.6916 280.204 38.5503C280.204 39.3323 280.058 40.076 279.767 40.7813C279.475 41.479 279.061 42.0923 278.525 42.6213C277.996 43.1426 277.355 43.5566 276.604 43.8633C275.853 44.17 275.021 44.3233 274.109 44.3233C273.173 44.3233 272.334 44.1776 271.59 43.8863C270.846 43.5873 270.214 43.1733 269.693 42.6443C269.179 42.1153 268.784 41.4828 268.508 40.7468C268.24 40.0108 268.106 39.202 268.106 38.3203C268.106 36.672 268.742 34.9968 270.015 33.2948L273.787 28.2003C273.963 27.978 274.216 27.7863 274.546 27.6253C274.883 27.4643 275.266 27.3838 275.696 27.3838H278.87L273.902 33.3178L273.465 33.8238ZM287.381 41.5058C287.749 41.5058 288.091 41.4368 288.405 41.2988C288.727 41.1608 289.003 40.973 289.233 40.7353C289.463 40.49 289.643 40.2063 289.773 39.8843C289.911 39.5546 289.98 39.1981 289.98 38.8148C289.98 38.3855 289.915 38.0021 289.785 37.6648C289.662 37.3275 289.486 37.0438 289.256 36.8138C289.026 36.5838 288.746 36.4075 288.416 36.2848C288.094 36.1621 287.734 36.1008 287.335 36.1008C286.975 36.1008 286.645 36.166 286.346 36.2963C286.047 36.419 285.787 36.5991 285.564 36.8368C285.35 37.0745 285.181 37.3581 285.058 37.6878C284.936 38.0175 284.874 38.3893 284.874 38.8033C284.874 39.2173 284.924 39.5891 285.024 39.9188C285.124 40.2485 285.277 40.5321 285.484 40.7698C285.691 41.0075 285.952 41.1915 286.266 41.3218C286.58 41.4445 286.952 41.5058 287.381 41.5058ZM286.806 33.8238C287.343 33.6245 287.941 33.5248 288.6 33.5248C289.206 33.5248 289.804 33.6245 290.394 33.8238C290.985 34.0231 291.514 34.3298 291.981 34.7438C292.449 35.1578 292.825 35.683 293.108 36.3193C293.4 36.948 293.545 37.6916 293.545 38.5503C293.545 39.3323 293.4 40.076 293.108 40.7813C292.817 41.479 292.403 42.0923 291.866 42.6213C291.337 43.1426 290.697 43.5566 289.946 43.8633C289.195 44.17 288.363 44.3233 287.45 44.3233C286.515 44.3233 285.676 44.1776 284.932 43.8863C284.188 43.5873 283.556 43.1733 283.034 42.6443C282.521 42.1153 282.126 41.4828 281.85 40.7468C281.582 40.0108 281.447 39.202 281.447 38.3203C281.447 36.672 282.084 34.9968 283.356 33.2948L287.128 28.2003C287.305 27.978 287.558 27.7863 287.887 27.6253C288.225 27.4643 288.608 27.3838 289.037 27.3838H292.211L287.243 33.3178L286.806 33.8238ZM295.088 32.1678C295.211 31.3321 295.445 30.6038 295.79 29.9828C296.142 29.3618 296.576 28.8443 297.089 28.4303C297.611 28.0163 298.205 27.7096 298.872 27.5103C299.539 27.3033 300.256 27.1998 301.022 27.1998C301.85 27.1998 302.586 27.3186 303.23 27.5563C303.874 27.7863 304.419 28.1006 304.863 28.4993C305.308 28.898 305.645 29.3618 305.875 29.8908C306.105 30.4121 306.22 30.9641 306.22 31.5468C306.22 32.0758 306.167 32.5435 306.059 32.9498C305.952 33.3485 305.791 33.6973 305.576 33.9963C305.369 34.2876 305.109 34.5368 304.794 34.7438C304.488 34.9431 304.135 35.1118 303.736 35.2498C305.592 35.9015 306.519 37.1665 306.519 39.0448C306.519 39.9341 306.358 40.7085 306.036 41.3678C305.714 42.0271 305.281 42.5753 304.737 43.0123C304.2 43.4493 303.575 43.779 302.862 44.0013C302.149 44.216 301.406 44.3233 300.631 44.3233C299.834 44.3233 299.125 44.239 298.504 44.0703C297.883 43.894 297.331 43.6256 296.848 43.2653C296.365 42.8973 295.939 42.4296 295.571 41.8623C295.211 41.295 294.897 40.6203 294.628 39.8383L296.215 39.1943C296.629 39.0333 297.013 38.9911 297.365 39.0678C297.718 39.1445 297.971 39.3208 298.124 39.5968C298.469 40.2331 298.833 40.697 299.217 40.9883C299.608 41.272 300.064 41.4138 300.585 41.4138C300.984 41.4138 301.329 41.3486 301.62 41.2183C301.919 41.0803 302.165 40.9078 302.356 40.7008C302.556 40.4861 302.705 40.2446 302.805 39.9763C302.904 39.708 302.954 39.4358 302.954 39.1598C302.954 38.7995 302.927 38.4775 302.874 38.1938C302.828 37.9025 302.69 37.6533 302.46 37.4463C302.23 37.2393 301.881 37.0821 301.413 36.9748C300.953 36.8598 300.309 36.8023 299.481 36.8023V34.3413C300.179 34.3413 300.742 34.2876 301.172 34.1803C301.601 34.073 301.931 33.9273 302.161 33.7433C302.398 33.5516 302.556 33.3216 302.632 33.0533C302.709 32.785 302.747 32.4898 302.747 32.1678C302.747 31.5085 302.586 31.0025 302.264 30.6498C301.95 30.2895 301.467 30.1093 300.815 30.1093C300.286 30.1093 299.838 30.2511 299.47 30.5348C299.109 30.8108 298.86 31.1558 298.722 31.5698C298.561 31.9915 298.35 32.2713 298.09 32.4093C297.829 32.5473 297.457 32.578 296.974 32.5013L295.088 32.1678ZM308.43 32.1678C308.553 31.3321 308.786 30.6038 309.131 29.9828C309.484 29.3618 309.917 28.8443 310.431 28.4303C310.952 28.0163 311.546 27.7096 312.213 27.5103C312.88 27.3033 313.597 27.1998 314.364 27.1998C315.192 27.1998 315.928 27.3186 316.572 27.5563C317.216 27.7863 317.76 28.1006 318.205 28.4993C318.65 28.898 318.987 29.3618 319.217 29.8908C319.447 30.4121 319.562 30.9641 319.562 31.5468C319.562 32.0758 319.508 32.5435 319.401 32.9498C319.294 33.3485 319.133 33.6973 318.918 33.9963C318.711 34.2876 318.45 34.5368 318.136 34.7438C317.829 34.9431 317.477 35.1118 317.078 35.2498C318.933 35.9015 319.861 37.1665 319.861 39.0448C319.861 39.9341 319.7 40.7085 319.378 41.3678C319.056 42.0271 318.623 42.5753 318.078 43.0123C317.542 43.4493 316.917 43.779 316.204 44.0013C315.491 44.216 314.747 44.3233 313.973 44.3233C313.176 44.3233 312.466 44.239 311.845 44.0703C311.224 43.894 310.672 43.6256 310.189 43.2653C309.706 42.8973 309.281 42.4296 308.913 41.8623C308.553 41.295 308.238 40.6203 307.97 39.8383L309.557 39.1943C309.971 39.0333 310.354 38.9911 310.707 39.0678C311.06 39.1445 311.313 39.3208 311.466 39.5968C311.811 40.2331 312.175 40.697 312.558 40.9883C312.949 41.272 313.406 41.4138 313.927 41.4138C314.326 41.4138 314.671 41.3486 314.962 41.2183C315.261 41.0803 315.506 40.9078 315.698 40.7008C315.897 40.4861 316.047 40.2446 316.146 39.9763C316.246 39.708 316.296 39.4358 316.296 39.1598C316.296 38.7995 316.269 38.4775 316.215 38.1938C316.169 37.9025 316.031 37.6533 315.801 37.4463C315.571 37.2393 315.223 37.0821 314.755 36.9748C314.295 36.8598 313.651 36.8023 312.823 36.8023V34.3413C313.521 34.3413 314.084 34.2876 314.513 34.1803C314.943 34.073 315.272 33.9273 315.502 33.7433C315.74 33.5516 315.897 33.3216 315.974 33.0533C316.051 32.785 316.089 32.4898 316.089 32.1678C316.089 31.5085 315.928 31.0025 315.606 30.6498C315.292 30.2895 314.809 30.1093 314.157 30.1093C313.628 30.1093 313.179 30.2511 312.811 30.5348C312.451 30.8108 312.202 31.1558 312.064 31.5698C311.903 31.9915 311.692 32.2713 311.431 32.4093C311.171 32.5473 310.799 32.578 310.316 32.5013L308.43 32.1678ZM325.049 32.5013C325.049 34.1726 325.824 35.0083 327.372 35.0083C328.131 35.0083 328.714 34.7821 329.12 34.3298C329.534 33.8698 329.741 33.2603 329.741 32.5013C329.741 32.095 329.68 31.7385 329.557 31.4318C329.442 31.1175 329.277 30.8568 329.063 30.6498C328.856 30.4428 328.603 30.2856 328.304 30.1783C328.005 30.071 327.679 30.0173 327.326 30.0173C326.966 30.0173 326.644 30.0825 326.36 30.2128C326.084 30.3355 325.847 30.508 325.647 30.7303C325.456 30.9526 325.306 31.2171 325.199 31.5238C325.099 31.8228 325.049 32.1486 325.049 32.5013ZM327.901 37.7913C328.009 37.661 328.112 37.5345 328.212 37.4118C328.311 37.2891 328.403 37.1665 328.488 37.0438C327.782 37.4195 326.981 37.6073 326.084 37.6073C325.54 37.6073 324.996 37.5115 324.451 37.3198C323.907 37.1205 323.412 36.8215 322.968 36.4228C322.531 36.0241 322.174 35.522 321.898 34.9163C321.622 34.3106 321.484 33.5938 321.484 32.7658C321.484 32.0068 321.622 31.29 321.898 30.6153C322.182 29.9406 322.581 29.3503 323.094 28.8443C323.616 28.3383 324.237 27.9396 324.957 27.6483C325.678 27.3493 326.483 27.1998 327.372 27.1998C328.277 27.1998 329.086 27.3378 329.799 27.6138C330.512 27.8898 331.114 28.277 331.604 28.7753C332.103 29.2736 332.482 29.8678 332.743 30.5578C333.011 31.2401 333.145 31.9953 333.145 32.8233C333.145 33.9196 332.98 34.901 332.651 35.7673C332.321 36.6336 331.88 37.4501 331.328 38.2168L327.717 43.3458C327.556 43.5681 327.311 43.756 326.981 43.9093C326.659 44.0626 326.291 44.1393 325.877 44.1393H322.588L327.901 37.7913ZM338.391 32.5013C338.391 34.1726 339.165 35.0083 340.714 35.0083C341.473 35.0083 342.056 34.7821 342.462 34.3298C342.876 33.8698 343.083 33.2603 343.083 32.5013C343.083 32.095 343.022 31.7385 342.899 31.4318C342.784 31.1175 342.619 30.8568 342.405 30.6498C342.198 30.4428 341.945 30.2856 341.646 30.1783C341.347 30.071 341.021 30.0173 340.668 30.0173C340.308 30.0173 339.986 30.0825 339.702 30.2128C339.426 30.3355 339.188 30.508 338.989 30.7303C338.797 30.9526 338.648 31.2171 338.541 31.5238C338.441 31.8228 338.391 32.1486 338.391 32.5013ZM341.243 37.7913C341.35 37.661 341.454 37.5345 341.554 37.4118C341.653 37.2891 341.745 37.1665 341.83 37.0438C341.124 37.4195 340.323 37.6073 339.426 37.6073C338.882 37.6073 338.337 37.5115 337.793 37.3198C337.249 37.1205 336.754 36.8215 336.31 36.4228C335.873 36.0241 335.516 35.522 335.24 34.9163C334.964 34.3106 334.826 33.5938 334.826 32.7658C334.826 32.0068 334.964 31.29 335.24 30.6153C335.524 29.9406 335.922 29.3503 336.436 28.8443C336.957 28.3383 337.578 27.9396 338.299 27.6483C339.02 27.3493 339.825 27.1998 340.714 27.1998C341.619 27.1998 342.428 27.3378 343.141 27.6138C343.854 27.8898 344.455 28.277 344.946 28.7753C345.444 29.2736 345.824 29.8678 346.085 30.5578C346.353 31.2401 346.487 31.9953 346.487 32.8233C346.487 33.9196 346.322 34.901 345.993 35.7673C345.663 36.6336 345.222 37.4501 344.67 38.2168L341.059 43.3458C340.898 43.5681 340.653 43.756 340.323 43.9093C340.001 44.0626 339.633 44.1393 339.219 44.1393H335.93L341.243 37.7913Z" fill="white"/>
</g>
<defs>
<filter id="filter0_d_1_519" x="0" y="15.1273" width="110.346" height="45.1857" filterUnits="userSpaceOnUse" color-interpolation-filters="sRGB">
<feFlood flood-opacity="0" result="BackgroundImageFix"/>
<feColorMatrix in="SourceAlpha" type="matrix" values="0 0 0 0 0 0 0 0 0 0 0 0 0 0 0 0 0 0 127 0" result="hardAlpha"/>
<feOffset dy="4"/>
<feGaussianBlur stdDeviation="2"/>
<feComposite in2="hardAlpha" operator="out"/>
<feColorMatrix type="matrix" values="0 0 0 0 0 0 0 0 0 0 0 0 0 0 0 0 0 0 0.25 0"/>
<feBlend mode="normal" in2="BackgroundImageFix" result="effect1_dropShadow_1_519"/>
<feBlend mode="normal" in="SourceGraphic" in2="effect1_dropShadow_1_519" result="shape"/>
</filter>
<filter id="filter1_d_1_519" x="88.625" y="15.1273" width="85.376" height="45.3423" filterUnits="userSpaceOnUse" color-interpolation-filters="sRGB">
<feFlood flood-opacity="0" result="BackgroundImageFix"/>
<feColorMatrix in="SourceAlpha" type="matrix" values="0 0 0 0 0 0 0 0 0 0 0 0 0 0 0 0 0 0 127 0" result="hardAlpha"/>
<feOffset dy="4"/>
<feGaussianBlur stdDeviation="2"/>
<feComposite in2="hardAlpha" operator="out"/>
<feColorMatrix type="matrix" values="0 0 0 0 0 0 0 0 0 0 0 0 0 0 0 0 0 0 0.25 0"/>
<feBlend mode="normal" in2="BackgroundImageFix" result="effect1_dropShadow_1_519"/>
<feBlend mode="normal" in="SourceGraphic" in2="effect1_dropShadow_1_519" result="shape"/>
</filter>
<filter id="filter2_d_1_519" x="66.7832" y="7.61758" width="67.427" height="60.44" filterUnits="userSpaceOnUse" color-interpolation-filters="sRGB">
<feFlood flood-opacity="0" result="BackgroundImageFix"/>
<feColorMatrix in="SourceAlpha" type="matrix" values="0 0 0 0 0 0 0 0 0 0 0 0 0 0 0 0 0 0 127 0" result="hardAlpha"/>
<feOffset dy="4"/>
<feGaussianBlur stdDeviation="11"/>
<feComposite in2="hardAlpha" operator="out"/>
<feColorMatrix type="matrix" values="0 0 0 0 0 0 0 0 0 0 0 0 0 0 0 0 0 0 0.25 0"/>
<feBlend mode="normal" in2="BackgroundImageFix" result="effect1_dropShadow_1_519"/>
<feBlend mode="normal" in="SourceGraphic" in2="effect1_dropShadow_1_519" result="shape"/>
</filter>
<filter id="filter3_d_1_519" x="95.5259" y="18.5761" width="29.4923" height="24.6075" filterUnits="userSpaceOnUse" color-interpolation-filters="sRGB">
<feFlood flood-opacity="0" result="BackgroundImageFix"/>
<feColorMatrix in="SourceAlpha" type="matrix" values="0 0 0 0 0 0 0 0 0 0 0 0 0 0 0 0 0 0 127 0" result="hardAlpha"/>
<feOffset dy="4"/>
<feGaussianBlur stdDeviation="2"/>
<feComposite in2="hardAlpha" operator="out"/>
<feColorMatrix type="matrix" values="0 0 0 0 0 0 0 0 0 0 0 0 0 0 0 0 0 0 0.25 0"/>
<feBlend mode="normal" in2="BackgroundImageFix" result="effect1_dropShadow_1_519"/>
<feBlend mode="normal" in="SourceGraphic" in2="effect1_dropShadow_1_519" result="shape"/>
</filter>
<filter id="filter4_d_1_519" x="60.2031" y="0" width="68.447" height="66.0675" filterUnits="userSpaceOnUse" color-interpolation-filters="sRGB">
<feFlood flood-opacity="0" result="BackgroundImageFix"/>
<feColorMatrix in="SourceAlpha" type="matrix" values="0 0 0 0 0 0 0 0 0 0 0 0 0 0 0 0 0 0 127 0" result="hardAlpha"/>
<feOffset dy="4"/>
<feGaussianBlur stdDeviation="13.5"/>
<feComposite in2="hardAlpha" operator="out"/>
<feColorMatrix type="matrix" values="0 0 0 0 0 0 0 0 0 0 0 0 0 0 0 0 0 0 0.25 0"/>
<feBlend mode="normal" in2="BackgroundImageFix" result="effect1_dropShadow_1_519"/>
<feBlend mode="normal" in="SourceGraphic" in2="effect1_dropShadow_1_519" result="shape"/>
</filter>
<filter id="filter5_d_1_519" x="63.2617" y="1.56734" width="74.4703" height="72.5406" filterUnits="userSpaceOnUse" color-interpolation-filters="sRGB">
<feFlood flood-opacity="0" result="BackgroundImageFix"/>
<feColorMatrix in="SourceAlpha" type="matrix" values="0 0 0 0 0 0 0 0 0 0 0 0 0 0 0 0 0 0 127 0" result="hardAlpha"/>
<feOffset dy="4"/>
<feGaussianBlur stdDeviation="17"/>
<feComposite in2="hardAlpha" operator="out"/>
<feColorMatrix type="matrix" values="0 0 0 0 0 0 0 0 0 0 0 0 0 0 0 0 0 0 0.25 0"/>
<feBlend mode="normal" in2="BackgroundImageFix" result="effect1_dropShadow_1_519"/>
<feBlend mode="normal" in="SourceGraphic" in2="effect1_dropShadow_1_519" result="shape"/>
</filter>
<filter id="filter6_d_1_519" x="164.977" y="21.1998" width="191.51" height="37.1235" filterUnits="userSpaceOnUse" color-interpolation-filters="sRGB">
<feFlood flood-opacity="0" result="BackgroundImageFix"/>
<feColorMatrix in="SourceAlpha" type="matrix" values="0 0 0 0 0 0 0 0 0 0 0 0 0 0 0 0 0 0 127 0" result="hardAlpha"/>
<feOffset dy="4"/>
<feGaussianBlur stdDeviation="5"/>
<feComposite in2="hardAlpha" operator="out"/>
<feColorMatrix type="matrix" values="0 0 0 0 0 0 0 0 0 0 0 0 0 0 0 0 0 0 0.25 0"/>
<feBlend mode="normal" in2="BackgroundImageFix" result="effect1_dropShadow_1_519"/>
<feBlend mode="normal" in="SourceGraphic" in2="effect1_dropShadow_1_519" result="shape"/>
</filter>
</defs>
</svg>
