<svg width="74" height="68" viewBox="0 0 74 68" fill="none" xmlns="http://www.w3.org/2000/svg">
<path d="M44.3055 5.66248H28.7758C23.2947 5.66248 22.0767 8.21061 21.3764 11.3533L18.8794 22.4516H54.2019L51.7049 11.3533C51.0046 8.21061 49.7866 5.66248 44.3055 5.66248Z" stroke="#216900" stroke-width="5.93165" stroke-linecap="round" stroke-linejoin="round"/>
<path d="M58.5868 40.543C58.8304 42.9496 56.7597 45.0164 54.1105 45.0164H49.9693C47.5941 45.0164 47.2592 44.0821 46.8329 42.893L46.3761 41.6754C45.7671 40.005 45.3713 38.8725 42.174 38.8725H30.8769C27.71 38.8725 27.2228 40.1465 26.6747 41.6754L26.2179 42.893C25.7916 44.0538 25.4567 45.0164 23.0815 45.0164H18.9403C16.2911 45.0164 14.2205 42.9496 14.4641 40.543L15.7126 28.029C16.0171 24.943 16.6565 22.4231 22.4421 22.4231H50.6087C56.3943 22.4231 57.0338 24.943 57.3383 28.029L58.5868 40.543Z" stroke="#216900" stroke-width="5.93165" stroke-linecap="round" stroke-linejoin="round"/>
<path d="M18.8795 16.2796H16.6566" stroke="#216900" stroke-width="5.93165" stroke-linecap="round" stroke-linejoin="round"/>
<path d="M56.4246 16.2796H54.2018" stroke="#216900" stroke-width="5.93165" stroke-linecap="round" stroke-linejoin="round"/>
<path d="M23.2946 30.6625H29.9023" stroke="#216900" stroke-width="5.93165" stroke-linecap="round" stroke-linejoin="round"/>
<path d="M43.1788 30.6625H49.7866" stroke="#216900" stroke-width="5.93165" stroke-linecap="round" stroke-linejoin="round"/>
<path d="M36.5405 48.1309V50.9621" stroke="#216900" stroke-width="5.93165" stroke-linecap="round" stroke-linejoin="round"/>
<path d="M36.5405 59.4557V62.287" stroke="#216900" stroke-width="5.93165" stroke-linecap="round" stroke-linejoin="round"/>
<path d="M9.13513 50.962L6.09009 62.2869" stroke="#216900" stroke-width="5.93165" stroke-linecap="round" stroke-linejoin="round"/>
<path d="M63.9459 50.962L66.991 62.2869" stroke="#216900" stroke-width="5.93165" stroke-linecap="round" stroke-linejoin="round"/>
</svg>
