<svg width="82" height="82" viewBox="0 0 82 82" fill="none" xmlns="http://www.w3.org/2000/svg">
<g filter="url(#filter0_d_1_664)">
<g filter="url(#filter1_d_1_664)">
<path d="M49.75 14.25H32.25M76 19.5V54.5C76 68.5 71.625 72 54.125 72H27.875C10.375 72 6 68.5 6 54.5V19.5C6 5.5 10.375 2 27.875 2H54.125C71.625 2 76 5.5 76 19.5Z" stroke="#585858" stroke-width="4" stroke-linecap="round" stroke-linejoin="round" shape-rendering="crispEdges"/>
</g>
<g filter="url(#filter2_d_1_664)">
<path d="M40.9991 61.85C42.7976 61.85 44.5224 61.2784 45.7942 60.2611C47.0659 59.2437 47.7803 57.8638 47.7803 56.425C47.7803 54.9862 47.0659 53.6063 45.7942 52.5889C44.5224 51.5716 42.7976 51 40.9991 51C39.2006 51 37.4757 51.5716 36.204 52.5889C34.9323 53.6063 34.2178 54.9862 34.2178 56.425C34.2178 57.8638 34.9323 59.2437 36.204 60.2611C37.4757 61.2784 39.2006 61.85 40.9991 61.85Z" stroke="#585858" stroke-width="4" stroke-linecap="round" stroke-linejoin="round" shape-rendering="crispEdges"/>
</g>
</g>
<defs>
<filter id="filter0_d_1_664" x="0" y="0" width="82" height="82" filterUnits="userSpaceOnUse" color-interpolation-filters="sRGB">
<feFlood flood-opacity="0" result="BackgroundImageFix"/>
<feColorMatrix in="SourceAlpha" type="matrix" values="0 0 0 0 0 0 0 0 0 0 0 0 0 0 0 0 0 0 127 0" result="hardAlpha"/>
<feOffset dy="4"/>
<feGaussianBlur stdDeviation="2"/>
<feComposite in2="hardAlpha" operator="out"/>
<feColorMatrix type="matrix" values="0 0 0 0 0 0 0 0 0 0 0 0 0 0 0 0 0 0 0.25 0"/>
<feBlend mode="normal" in2="BackgroundImageFix" result="effect1_dropShadow_1_664"/>
<feBlend mode="normal" in="SourceGraphic" in2="effect1_dropShadow_1_664" result="shape"/>
</filter>
<filter id="filter1_d_1_664" x="0" y="0" width="82" height="82" filterUnits="userSpaceOnUse" color-interpolation-filters="sRGB">
<feFlood flood-opacity="0" result="BackgroundImageFix"/>
<feColorMatrix in="SourceAlpha" type="matrix" values="0 0 0 0 0 0 0 0 0 0 0 0 0 0 0 0 0 0 127 0" result="hardAlpha"/>
<feOffset dy="4"/>
<feGaussianBlur stdDeviation="2"/>
<feComposite in2="hardAlpha" operator="out"/>
<feColorMatrix type="matrix" values="0 0 0 0 0 0 0 0 0 0 0 0 0 0 0 0 0 0 0.25 0"/>
<feBlend mode="normal" in2="BackgroundImageFix" result="effect1_dropShadow_1_664"/>
<feBlend mode="normal" in="SourceGraphic" in2="effect1_dropShadow_1_664" result="shape"/>
</filter>
<filter id="filter2_d_1_664" x="28.2178" y="49" width="25.5625" height="22.85" filterUnits="userSpaceOnUse" color-interpolation-filters="sRGB">
<feFlood flood-opacity="0" result="BackgroundImageFix"/>
<feColorMatrix in="SourceAlpha" type="matrix" values="0 0 0 0 0 0 0 0 0 0 0 0 0 0 0 0 0 0 127 0" result="hardAlpha"/>
<feOffset dy="4"/>
<feGaussianBlur stdDeviation="2"/>
<feComposite in2="hardAlpha" operator="out"/>
<feColorMatrix type="matrix" values="0 0 0 0 0 0 0 0 0 0 0 0 0 0 0 0 0 0 0.25 0"/>
<feBlend mode="normal" in2="BackgroundImageFix" result="effect1_dropShadow_1_664"/>
<feBlend mode="normal" in="SourceGraphic" in2="effect1_dropShadow_1_664" result="shape"/>
</filter>
</defs>
</svg>
