<svg width="117" height="74" viewBox="0 0 117 74" fill="none" xmlns="http://www.w3.org/2000/svg">
<path d="M108.673 10.468C101.789 11.0608 92.7395 20.6623 84.0147 26.1826C73.3123 32.9484 56.6611 27.5089 56.6579 27.5089C59.2253 25.8257 69.6679 22.3527 71.7725 21.0646C82.9478 14.195 81.9965 -0.116306 76.6748 0.00071327C69.6461 0.165357 65.5142 2.57604 51.4798 5.24798C40.8436 7.26725 28.2662 6.52839 22.2317 9.74596C13.7145 14.2898 0 44.8558 0 44.8558L21.2138 73.56C21.2138 73.56 34.3437 55.5005 40.7316 55.5005C55.2889 55.5005 55.8728 55.2261 69.3905 54.2019C75.1435 53.772 76.3429 53.4422 79.6281 51.8947C97.1533 43.6208 115.966 21.588 116.312 18.9361C117.117 12.7975 112.304 10.1514 108.673 10.468Z" fill="#216900"/>
</svg>
