<svg width="62" height="79" viewBox="0 0 62 79" fill="none" xmlns="http://www.w3.org/2000/svg">
<path d="M55.3588 58.6024C57.8282 60.3557 59.1282 62.3445 59.1282 64.369C59.1282 66.3935 57.8282 68.3823 55.3588 70.1355C52.8895 71.8888 49.3378 73.3447 45.0608 74.3569C40.7838 75.3692 35.9321 75.9021 30.9934 75.9021C26.0547 75.9021 21.2031 75.3692 16.926 74.3569C12.649 73.3447 9.09733 71.8888 6.62799 70.1355C4.15865 68.3823 2.85864 66.3935 2.85864 64.369C2.85864 62.3445 4.15864 60.3557 6.62799 58.6024" stroke="#216900" stroke-width="5.71725" stroke-linecap="round"/>
<path d="M55.8172 31.6914C55.8172 52.2545 35.1763 65.6831 31.5371 67.8909C31.1956 68.0981 30.7892 68.0981 30.4477 67.8909C26.8085 65.6831 6.1676 52.2545 6.1676 31.6914C6.1676 14.3917 18.1961 2.85864 30.9924 2.85864C44.2323 2.85864 55.8172 14.3917 55.8172 31.6914Z" stroke="#216900" stroke-width="5.71725"/>
<path d="M30.9939 19.1725C36.3407 19.1728 41.3748 24.3618 41.3748 31.6921C41.3745 39.0221 36.3405 44.2104 30.9939 44.2106C25.6471 44.2106 20.6123 39.0223 20.6121 31.6921C20.6121 24.3616 25.647 19.1725 30.9939 19.1725Z" stroke="#216900" stroke-width="5.71725"/>
</svg>
