<svg width="70" height="70" viewBox="0 0 70 70" fill="none" xmlns="http://www.w3.org/2000/svg">
<g filter="url(#filter0_d_1_674)">
<mask id="path-1-inside-1_1_674" fill="white">
<path d="M33.3517 61.1494H36.369V56.523C39.118 56.3889 41.8503 55.4334 44.5658 53.6566C47.2813 51.8798 48.6391 49.0805 48.6391 45.2586C48.6391 42.4425 47.7675 40.0958 46.0242 38.2184C44.2809 36.341 40.9954 34.5307 36.1678 32.7874C31.6084 31.1782 28.7588 29.8036 27.619 28.6638C26.4791 27.5239 25.9092 25.8812 25.9092 23.7356C25.9092 21.59 26.7641 19.7797 28.4739 18.3046C30.1836 16.8295 32.413 16.092 35.1621 16.092C37.1736 16.092 38.8834 16.5445 40.2914 17.4497C41.6994 18.3549 42.8728 19.5115 43.8115 20.9195L46.4265 19.9138C45.4207 18.1035 44.0294 16.6116 42.2526 15.4382C40.4758 14.2648 38.5816 13.6111 36.5701 13.477V8.85058H33.5529V13.477C29.9993 14.0134 27.334 15.2706 25.5572 17.2486C23.7804 19.2265 22.892 21.3889 22.892 23.7356C22.892 26.5517 23.7971 28.7979 25.6075 30.4741C27.4178 32.1504 30.5357 33.7931 34.9609 35.4023C39.3192 37.0115 42.2191 38.4698 43.6607 39.7773C45.1022 41.0848 45.823 42.9119 45.823 45.2586C45.823 48.2759 44.7167 50.4382 42.504 51.7457C40.2914 53.0532 37.9782 53.7069 35.5644 53.7069C33.2176 53.7069 31.0888 53.0364 29.1779 51.6954C27.267 50.3544 25.7081 48.477 24.5012 46.0632L21.8862 47.2701C23.0931 49.8851 24.652 51.8966 26.563 53.3046C28.4739 54.7126 30.7368 55.7184 33.3517 56.3218V61.1494ZM34.9609 70C30.1334 70 25.5907 69.0781 21.3331 67.2342C17.0754 65.3903 13.3709 62.8927 10.2196 59.7414C7.06822 56.59 4.57061 52.8855 2.72674 48.6279C0.882872 44.3702 -0.0390625 39.8276 -0.0390625 35C-0.0390625 30.1724 0.882872 25.6298 2.72674 21.3721C4.57061 17.1145 7.06822 13.41 10.2196 10.2586C13.3709 7.10728 17.0754 4.60967 21.3331 2.7658C25.5907 0.921935 30.1334 0 34.9609 0C39.7885 0 44.3312 0.921935 48.5888 2.7658C52.8465 4.60967 56.551 7.10728 59.7023 10.2586C62.8537 13.41 65.3513 17.1145 67.1951 21.3721C69.039 25.6298 69.9609 30.1724 69.9609 35C69.9609 39.8276 69.039 44.3702 67.1951 48.6279C65.3513 52.8855 62.8537 56.59 59.7023 59.7414C56.551 62.8927 52.8465 65.3903 48.5888 67.2342C44.3312 69.0781 39.7885 70 34.9609 70ZM34.9609 67.1839C43.9456 67.1839 51.5558 64.0661 57.7914 57.8305C64.027 51.5948 67.1449 43.9847 67.1449 35C67.1449 26.0153 64.027 18.4052 57.7914 12.1695C51.5558 5.93391 43.9456 2.81609 34.9609 2.81609C25.9763 2.81609 18.3661 5.93391 12.1305 12.1695C5.89485 18.4052 2.77703 26.0153 2.77703 35C2.77703 43.9847 5.89485 51.5948 12.1305 57.8305C18.3661 64.0661 25.9763 67.1839 34.9609 67.1839Z"/>
</mask>
<path d="M33.3517 61.1494H36.369V56.523C39.118 56.3889 41.8503 55.4334 44.5658 53.6566C47.2813 51.8798 48.6391 49.0805 48.6391 45.2586C48.6391 42.4425 47.7675 40.0958 46.0242 38.2184C44.2809 36.341 40.9954 34.5307 36.1678 32.7874C31.6084 31.1782 28.7588 29.8036 27.619 28.6638C26.4791 27.5239 25.9092 25.8812 25.9092 23.7356C25.9092 21.59 26.7641 19.7797 28.4739 18.3046C30.1836 16.8295 32.413 16.092 35.1621 16.092C37.1736 16.092 38.8834 16.5445 40.2914 17.4497C41.6994 18.3549 42.8728 19.5115 43.8115 20.9195L46.4265 19.9138C45.4207 18.1035 44.0294 16.6116 42.2526 15.4382C40.4758 14.2648 38.5816 13.6111 36.5701 13.477V8.85058H33.5529V13.477C29.9993 14.0134 27.334 15.2706 25.5572 17.2486C23.7804 19.2265 22.892 21.3889 22.892 23.7356C22.892 26.5517 23.7971 28.7979 25.6075 30.4741C27.4178 32.1504 30.5357 33.7931 34.9609 35.4023C39.3192 37.0115 42.2191 38.4698 43.6607 39.7773C45.1022 41.0848 45.823 42.9119 45.823 45.2586C45.823 48.2759 44.7167 50.4382 42.504 51.7457C40.2914 53.0532 37.9782 53.7069 35.5644 53.7069C33.2176 53.7069 31.0888 53.0364 29.1779 51.6954C27.267 50.3544 25.7081 48.477 24.5012 46.0632L21.8862 47.2701C23.0931 49.8851 24.652 51.8966 26.563 53.3046C28.4739 54.7126 30.7368 55.7184 33.3517 56.3218V61.1494ZM34.9609 70C30.1334 70 25.5907 69.0781 21.3331 67.2342C17.0754 65.3903 13.3709 62.8927 10.2196 59.7414C7.06822 56.59 4.57061 52.8855 2.72674 48.6279C0.882872 44.3702 -0.0390625 39.8276 -0.0390625 35C-0.0390625 30.1724 0.882872 25.6298 2.72674 21.3721C4.57061 17.1145 7.06822 13.41 10.2196 10.2586C13.3709 7.10728 17.0754 4.60967 21.3331 2.7658C25.5907 0.921935 30.1334 0 34.9609 0C39.7885 0 44.3312 0.921935 48.5888 2.7658C52.8465 4.60967 56.551 7.10728 59.7023 10.2586C62.8537 13.41 65.3513 17.1145 67.1951 21.3721C69.039 25.6298 69.9609 30.1724 69.9609 35C69.9609 39.8276 69.039 44.3702 67.1951 48.6279C65.3513 52.8855 62.8537 56.59 59.7023 59.7414C56.551 62.8927 52.8465 65.3903 48.5888 67.2342C44.3312 69.0781 39.7885 70 34.9609 70ZM34.9609 67.1839C43.9456 67.1839 51.5558 64.0661 57.7914 57.8305C64.027 51.5948 67.1449 43.9847 67.1449 35C67.1449 26.0153 64.027 18.4052 57.7914 12.1695C51.5558 5.93391 43.9456 2.81609 34.9609 2.81609C25.9763 2.81609 18.3661 5.93391 12.1305 12.1695C5.89485 18.4052 2.77703 26.0153 2.77703 35C2.77703 43.9847 5.89485 51.5948 12.1305 57.8305C18.3661 64.0661 25.9763 67.1839 34.9609 67.1839Z" fill="#585858"/>
<path d="M33.3517 61.1494H23.3517V71.1494H33.3517V61.1494ZM36.369 61.1494V71.1494H46.369V61.1494H36.369ZM36.369 56.523L35.8818 46.5349L26.369 46.9989V56.523H36.369ZM36.1678 32.7874L39.5643 23.3818L39.5302 23.3695L39.496 23.3575L36.1678 32.7874ZM43.8115 20.9195L35.491 26.4665L39.9308 33.1263L47.4013 30.253L43.8115 20.9195ZM46.4265 19.9138L50.0162 29.2473L60.7564 25.1164L55.168 15.0574L46.4265 19.9138ZM36.5701 13.477H26.5701V22.8325L35.9049 23.4549L36.5701 13.477ZM36.5701 8.85058H46.5701V-1.14942H36.5701V8.85058ZM33.5529 8.85058V-1.14942H23.5529V8.85058H33.5529ZM33.5529 13.477L35.0454 23.365L43.5529 22.0809V13.477H33.5529ZM34.9609 35.4023L38.4247 26.0213L38.4015 26.0128L38.3784 26.0044L34.9609 35.4023ZM24.5012 46.0632L33.4454 41.5911L29.1109 32.922L20.3106 36.9836L24.5012 46.0632ZM21.8862 47.2701L17.6956 38.1905L8.61605 42.3811L12.8066 51.4607L21.8862 47.2701ZM33.3517 56.3218H43.3517V48.3667L35.6003 46.5779L33.3517 56.3218ZM33.3517 61.1494V71.1494H36.369V61.1494V51.1494H33.3517V61.1494ZM36.369 61.1494H46.369V56.523H36.369H26.369V61.1494H36.369ZM36.369 56.523L36.8562 66.5111C41.6779 66.2759 46.1054 64.5997 50.0411 62.0245L44.5658 53.6566L39.0905 45.2887C37.5952 46.2672 36.5581 46.5019 35.8818 46.5349L36.369 56.523ZM44.5658 53.6566L50.0411 62.0245C56.1163 58.0494 58.6391 51.7591 58.6391 45.2586H48.6391H38.6391C38.6391 45.9963 38.5091 46.0959 38.6233 45.8604C38.6792 45.7451 38.7658 45.6099 38.8783 45.4836C38.989 45.3592 39.0755 45.2986 39.0905 45.2887L44.5658 53.6566ZM48.6391 45.2586H58.6391C58.6391 40.1904 56.9895 35.3311 53.3521 31.4139L46.0242 38.2184L38.6962 45.0229C38.7053 45.0327 38.69 45.0174 38.6655 44.978C38.6408 44.9381 38.6222 44.8981 38.6111 44.8684C38.6005 44.8397 38.6061 44.8454 38.6152 44.8993C38.6246 44.955 38.6391 45.0708 38.6391 45.2586H48.6391ZM46.0242 38.2184L53.3521 31.4139C49.8961 27.692 44.6749 25.2273 39.5643 23.3818L36.1678 32.7874L32.7714 42.1929C34.8584 42.9465 36.3749 43.6315 37.4266 44.211C38.5283 44.8181 38.8011 45.1359 38.6962 45.0229L46.0242 38.2184ZM36.1678 32.7874L39.496 23.3575C37.4025 22.6185 35.9256 22.0105 34.9556 21.5426C34.4759 21.3112 34.2201 21.1618 34.1264 21.1027C33.9961 21.0206 34.268 21.1706 34.6901 21.5927L27.619 28.6638L20.5479 35.7349C22.3523 37.5393 24.6097 38.7573 26.2666 39.5565C28.1462 40.4632 30.3738 41.347 32.8396 42.2173L36.1678 32.7874ZM27.619 28.6638L34.6901 21.5927C35.2712 22.1739 35.6135 22.8072 35.7842 23.2991C35.9391 23.7455 35.9092 23.9438 35.9092 23.7356H25.9092H15.9092C15.9092 27.6258 16.976 32.1629 20.5479 35.7349L27.619 28.6638ZM25.9092 23.7356H35.9092C35.9092 24.0315 35.8404 24.5145 35.5929 25.0387C35.3516 25.5497 35.0741 25.8176 35.0062 25.8762L28.4739 18.3046L21.9415 10.733C18.1616 13.9942 15.9092 18.5126 15.9092 23.7356H25.9092ZM28.4739 18.3046L35.0062 25.8762C34.9281 25.9436 34.8402 26.0051 34.751 26.0553C34.6625 26.105 34.5968 26.1299 34.5691 26.1391C34.5145 26.1571 34.677 26.092 35.1621 26.092V16.092V6.09196C30.5583 6.09196 25.8402 7.3695 21.9415 10.733L28.4739 18.3046ZM35.1621 16.092V26.092C35.4201 26.092 35.4794 26.121 35.3941 26.0984C35.3513 26.0871 35.2792 26.0646 35.1861 26.024C35.0925 25.9833 34.9895 25.9294 34.8838 25.8615L40.2914 17.4497L45.699 9.03793C42.378 6.903 38.7002 6.09196 35.1621 6.09196V16.092ZM40.2914 17.4497L34.8838 25.8615C35.1211 26.014 35.3072 26.1908 35.491 26.4665L43.8115 20.9195L52.132 15.3725C50.4385 12.8322 48.2778 10.6958 45.699 9.03793L40.2914 17.4497ZM43.8115 20.9195L47.4013 30.253L50.0162 29.2473L46.4265 19.9138L42.8367 10.5803L40.2217 11.5861L43.8115 20.9195ZM46.4265 19.9138L55.168 15.0574C53.3589 11.8009 50.8426 9.12712 47.7632 7.09357L42.2526 15.4382L36.742 23.7829C37.2163 24.0961 37.4825 24.406 37.6849 24.7702L46.4265 19.9138ZM42.2526 15.4382L47.7632 7.09357C44.6244 5.02079 41.0743 3.7551 37.2353 3.49916L36.5701 13.477L35.9049 23.4549C36.0889 23.4671 36.3271 23.5089 36.742 23.7829L42.2526 15.4382ZM36.5701 13.477H46.5701V8.85058H36.5701H26.5701V13.477H36.5701ZM36.5701 8.85058V-1.14942H33.5529V8.85058V18.8506H36.5701V8.85058ZM33.5529 8.85058H23.5529V13.477H33.5529H43.5529V8.85058H33.5529ZM33.5529 13.477L32.0604 3.58902C27.0194 4.34992 21.9146 6.33947 18.118 10.5659L25.5572 17.2486L32.9964 23.9312C32.7534 24.2017 32.9791 23.6769 35.0454 23.365L33.5529 13.477ZM25.5572 17.2486L18.118 10.5659C14.9275 14.1176 12.892 18.5913 12.892 23.7356H22.892H32.892C32.892 23.7841 32.887 23.8567 32.8699 23.9432C32.8529 24.0298 32.8292 24.1025 32.808 24.1541C32.7874 24.2043 32.778 24.213 32.7996 24.1793C32.8222 24.1443 32.8806 24.0602 32.9964 23.9312L25.5572 17.2486ZM22.892 23.7356H12.892C12.892 28.9039 14.6613 33.9672 18.8134 37.8117L25.6075 30.4741L32.4016 23.1365C32.4651 23.1953 32.5522 23.2892 32.6414 23.418C32.7309 23.5473 32.7991 23.6781 32.846 23.7946C32.9435 24.0365 32.892 24.0686 32.892 23.7356H22.892ZM25.6075 30.4741L18.8134 37.8117C22.1307 40.8833 26.7962 43.074 31.5435 44.8002L34.9609 35.4023L38.3784 26.0044C34.2751 24.5123 32.7049 23.4174 32.4016 23.1365L25.6075 30.4741ZM34.9609 35.4023L31.4972 44.7833C33.4611 45.5084 34.9045 46.1303 35.9118 46.6369C37.0152 47.1918 37.1882 47.4074 36.9425 47.1845L43.6607 39.7773L50.3788 32.3701C47.3554 29.628 42.7696 27.6256 38.4247 26.0213L34.9609 35.4023ZM43.6607 39.7773L36.9425 47.1845C36.5157 46.7974 36.1775 46.2983 35.9801 45.798C35.7992 45.3394 35.823 45.1023 35.823 45.2586H45.823H55.823C55.823 40.7209 54.3357 35.9589 50.3788 32.3701L43.6607 39.7773ZM45.823 45.2586H35.823C35.823 45.5596 35.7688 45.2178 36.0908 44.5886C36.2505 44.2765 36.4667 43.9675 36.7297 43.6926C36.9898 43.4206 37.2379 43.2421 37.4168 43.1364L42.504 51.7457L47.5913 60.355C53.4275 56.9063 55.823 51.0841 55.823 45.2586H45.823ZM42.504 51.7457L37.4168 43.1364C36.6413 43.5947 36.0719 43.7069 35.5644 43.7069V53.7069V63.7069C39.8845 63.7069 43.9415 62.5117 47.5913 60.355L42.504 51.7457ZM35.5644 53.7069V43.7069C35.2618 43.7069 35.1409 43.6633 34.9222 43.5098L29.1779 51.6954L23.4336 59.881C27.0367 62.4095 31.1735 63.7069 35.5644 63.7069V53.7069ZM29.1779 51.6954L34.9222 43.5098C34.5679 43.2613 34.0268 42.7539 33.4454 41.5911L24.5012 46.0632L15.5569 50.5354C17.3893 54.2001 19.966 57.4476 23.4336 59.881L29.1779 51.6954ZM24.5012 46.0632L20.3106 36.9836L17.6956 38.1905L21.8862 47.2701L26.0768 56.3497L28.6918 55.1428L24.5012 46.0632ZM21.8862 47.2701L12.8066 51.4607C14.5706 55.2826 17.1007 58.7539 20.631 61.3552L26.563 53.3046L32.4949 45.254C32.2033 45.0392 31.6157 44.4876 30.9658 43.0795L21.8862 47.2701ZM26.563 53.3046L20.631 61.3552C23.776 63.6726 27.3312 65.1953 31.1032 66.0658L33.3517 56.3218L35.6003 46.5779C34.1424 46.2415 33.1717 45.7527 32.4949 45.254L26.563 53.3046ZM33.3517 56.3218H23.3517V61.1494H33.3517H43.3517V56.3218H33.3517ZM34.9609 70V60C31.4439 60 28.2594 59.3363 25.3071 58.0578L21.3331 67.2342L17.359 76.4106C22.922 78.8198 28.8228 80 34.9609 80V70ZM21.3331 67.2342L25.3071 58.0578C22.1569 56.6935 19.515 54.8946 17.2906 52.6703L10.2196 59.7414L3.14849 66.8125C7.22684 70.8908 11.9939 74.0872 17.359 76.4106L21.3331 67.2342ZM10.2196 59.7414L17.2906 52.6703C15.0663 50.446 13.2674 47.8041 11.9032 44.6538L2.72674 48.6279L-6.44969 52.6019C-4.12622 57.967 -0.929859 62.7341 3.14849 66.8125L10.2196 59.7414ZM2.72674 48.6279L11.9032 44.6538C10.6246 41.7015 9.96094 38.5171 9.96094 35H-0.0390625H-10.0391C-10.0391 41.1381 -8.85886 47.0389 -6.44969 52.6019L2.72674 48.6279ZM-0.0390625 35H9.96094C9.96094 31.4829 10.6246 28.2985 11.9032 25.3462L2.72674 21.3721L-6.44969 17.3981C-8.85886 22.9611 -10.0391 28.8619 -10.0391 35H-0.0390625ZM2.72674 21.3721L11.9032 25.3462C13.2674 22.1959 15.0663 19.554 17.2906 17.3297L10.2196 10.2586L3.14849 3.18755C-0.929859 7.2659 -4.12622 12.033 -6.44969 17.3981L2.72674 21.3721ZM10.2196 10.2586L17.2906 17.3297C19.515 15.1054 22.1569 13.3065 25.3071 11.9422L21.3331 2.7658L17.359 -6.41063C11.9939 -4.08716 7.22684 -0.890796 3.14849 3.18755L10.2196 10.2586ZM21.3331 2.7658L25.3071 11.9422C28.2595 10.6637 31.4439 10 34.9609 10V0V-10C28.8228 -10 22.922 -8.8198 17.359 -6.41063L21.3331 2.7658ZM34.9609 0V10C38.478 10 41.6624 10.6637 44.6148 11.9422L48.5888 2.7658L52.5629 -6.41063C46.9999 -8.8198 41.099 -10 34.9609 -10V0ZM48.5888 2.7658L44.6148 11.9422C47.765 13.3065 50.4069 15.1054 52.6313 17.3297L59.7023 10.2586L66.7734 3.18755C62.695 -0.890796 57.928 -4.08716 52.5629 -6.41063L48.5888 2.7658ZM59.7023 10.2586L52.6313 17.3297C54.8556 19.554 56.6544 22.1959 58.0187 25.3462L67.1951 21.3721L76.3716 17.3981C74.0481 12.033 70.8517 7.26591 66.7734 3.18755L59.7023 10.2586ZM67.1951 21.3721L58.0187 25.3462C59.2973 28.2985 59.9609 31.4829 59.9609 35H69.9609H79.9609C79.9609 28.8619 78.7807 22.9611 76.3716 17.3981L67.1951 21.3721ZM69.9609 35H59.9609C59.9609 38.5171 59.2973 41.7015 58.0187 44.6538L67.1951 48.6279L76.3716 52.6019C78.7807 47.0389 79.9609 41.1381 79.9609 35H69.9609ZM67.1951 48.6279L58.0187 44.6538C56.6544 47.8041 54.8556 50.446 52.6313 52.6703L59.7023 59.7414L66.7734 66.8125C70.8517 62.7341 74.0481 57.967 76.3716 52.6019L67.1951 48.6279ZM59.7023 59.7414L52.6313 52.6703C50.4069 54.8946 47.765 56.6935 44.6148 58.0578L48.5888 67.2342L52.5629 76.4106C57.928 74.0872 62.695 70.8908 66.7734 66.8125L59.7023 59.7414ZM48.5888 67.2342L44.6148 58.0578C41.6624 59.3363 38.478 60 34.9609 60V70V80C41.099 80 46.9999 78.8198 52.5629 76.4106L48.5888 67.2342ZM34.9609 67.1839V77.1839C46.5417 77.1839 56.7122 73.0518 64.8625 64.9015L57.7914 57.8305L50.7203 50.7594C46.3993 55.0804 41.3495 57.1839 34.9609 57.1839V67.1839ZM57.7914 57.8305L64.8625 64.9015C73.0127 56.7513 77.1449 46.5808 77.1449 35H67.1449H57.1449C57.1449 41.3886 55.0413 46.4384 50.7203 50.7594L57.7914 57.8305ZM67.1449 35H77.1449C77.1449 23.4192 73.0127 13.2487 64.8625 5.09847L57.7914 12.1695L50.7203 19.2406C55.0413 23.5616 57.1449 28.6114 57.1449 35H67.1449ZM57.7914 12.1695L64.8625 5.09847C56.7122 -3.05179 46.5417 -7.18391 34.9609 -7.18391V2.81609V12.8161C41.3495 12.8161 46.3993 14.9196 50.7203 19.2406L57.7914 12.1695ZM34.9609 2.81609V-7.18391C23.3801 -7.18391 13.2097 -3.05179 5.05941 5.09847L12.1305 12.1695L19.2015 19.2406C23.5226 14.9196 28.5724 12.8161 34.9609 12.8161V2.81609ZM12.1305 12.1695L5.05941 5.09847C-3.09085 13.2487 -7.22297 23.4192 -7.22297 35H2.77703H12.777C12.777 28.6114 14.8805 23.5616 19.2015 19.2406L12.1305 12.1695ZM2.77703 35H-7.22297C-7.22297 46.5808 -3.09085 56.7513 5.05941 64.9015L12.1305 57.8305L19.2015 50.7594C14.8805 46.4384 12.777 41.3886 12.777 35H2.77703ZM12.1305 57.8305L5.05941 64.9015C13.2097 73.0518 23.3801 77.1839 34.9609 77.1839V67.1839V57.1839C28.5724 57.1839 23.5226 55.0804 19.2015 50.7594L12.1305 57.8305Z" fill="#585858" mask="url(#path-1-inside-1_1_674)"/>
</g>
<defs>
<filter id="filter0_d_1_674" x="-4.03906" y="0" width="78" height="78" filterUnits="userSpaceOnUse" color-interpolation-filters="sRGB">
<feFlood flood-opacity="0" result="BackgroundImageFix"/>
<feColorMatrix in="SourceAlpha" type="matrix" values="0 0 0 0 0 0 0 0 0 0 0 0 0 0 0 0 0 0 127 0" result="hardAlpha"/>
<feOffset dy="4"/>
<feGaussianBlur stdDeviation="2"/>
<feComposite in2="hardAlpha" operator="out"/>
<feColorMatrix type="matrix" values="0 0 0 0 0 0 0 0 0 0 0 0 0 0 0 0 0 0 0.25 0"/>
<feBlend mode="normal" in2="BackgroundImageFix" result="effect1_dropShadow_1_674"/>
<feBlend mode="normal" in="SourceGraphic" in2="effect1_dropShadow_1_674" result="shape"/>
</filter>
</defs>
</svg>
