<svg width="70" height="70" viewBox="0 0 70 70" fill="none" xmlns="http://www.w3.org/2000/svg">
<path d="M52.5 20.8834C52.325 20.8542 52.1208 20.8542 51.9458 20.8834C47.9208 20.7376 44.7125 17.4417 44.7125 13.3584C44.7125 9.18755 48.0666 5.83337 52.2375 5.83337C56.4083 5.83337 59.7625 9.21671 59.7625 13.3584C59.7333 17.4417 56.525 20.7376 52.5 20.8834Z" stroke="#585858" stroke-width="4" stroke-linecap="round" stroke-linejoin="round"/>
<path d="M49.4958 42.1164C53.4917 42.7873 57.8958 42.0873 60.9875 40.0164C65.1 37.2748 65.1 32.7831 60.9875 30.0414C57.8667 27.9706 53.4042 27.2706 49.4083 27.9706" stroke="#585858" stroke-width="4" stroke-linecap="round" stroke-linejoin="round"/>
<path d="M17.4123 20.8834C17.5873 20.8542 17.7915 20.8542 17.9665 20.8834C21.9915 20.7376 25.1998 17.4417 25.1998 13.3584C25.1998 9.18755 21.8457 5.83337 17.6748 5.83337C13.504 5.83337 10.1498 9.21671 10.1498 13.3584C10.179 17.4417 13.3873 20.7376 17.4123 20.8834Z" stroke="#585858" stroke-width="4" stroke-linecap="round" stroke-linejoin="round"/>
<path d="M20.4166 42.1164C16.4208 42.7873 12.0166 42.0873 8.92495 40.0164C4.81245 37.2748 4.81245 32.7831 8.92495 30.0414C12.0458 27.9706 16.5083 27.2706 20.5041 27.9706" stroke="#585858" stroke-width="4" stroke-linecap="round" stroke-linejoin="round"/>
<path d="M34.9998 42.6706C34.8248 42.6414 34.6207 42.6414 34.4457 42.6706C30.4207 42.5248 27.2123 39.2289 27.2123 35.1456C27.2123 30.9748 30.5665 27.6206 34.7373 27.6206C38.9082 27.6206 42.2623 31.0039 42.2623 35.1456C42.2332 39.2289 39.0248 42.5539 34.9998 42.6706Z" stroke="#585858" stroke-width="4" stroke-linecap="round" stroke-linejoin="round"/>
<path d="M26.5124 51.8581C22.3999 54.5997 22.3999 59.0914 26.5124 61.8331C31.179 64.9539 38.8207 64.9539 43.4874 61.8331C47.5999 59.0914 47.5999 54.5997 43.4874 51.8581C38.8499 48.7664 31.179 48.7664 26.5124 51.8581Z" stroke="#585858" stroke-width="4" stroke-linecap="round" stroke-linejoin="round"/>
</svg>
