<svg width="29" height="29" viewBox="0 0 29 29" fill="none" xmlns="http://www.w3.org/2000/svg">
<g filter="url(#filter0_i_1_544)">
<path d="M14.6446 15.4424C14.5483 15.4303 14.4509 15.4303 14.3546 15.4424C13.3299 15.4079 12.3587 14.9765 11.6462 14.2392C10.9337 13.5019 10.5357 12.5165 10.5363 11.4912C10.5363 9.30409 12.3005 7.52784 14.4996 7.52784C15.5381 7.52604 16.5357 7.9324 17.2774 8.65932C18.019 9.38625 18.4453 10.3755 18.4643 11.4138C18.4834 12.4521 18.0936 13.4563 17.3791 14.2099C16.6645 14.9635 15.6825 15.4062 14.6446 15.4424ZM22.6438 23.4174C20.4232 25.4584 17.5157 26.5886 14.4996 26.5833C11.358 26.5833 8.5063 25.387 6.35547 23.4174C6.4763 22.2816 7.2013 21.1699 8.49422 20.2999C11.8051 18.1008 17.2184 18.1008 20.5051 20.2999C21.798 21.1699 22.523 22.2816 22.6438 23.4174Z" stroke="black" stroke-width="1.5" stroke-linecap="round" stroke-linejoin="round"/>
<path d="M14.5013 26.5834C21.1749 26.5834 26.5846 21.1737 26.5846 14.5001C26.5846 7.82646 21.1749 2.41675 14.5013 2.41675C7.82768 2.41675 2.41797 7.82646 2.41797 14.5001C2.41797 21.1737 7.82768 26.5834 14.5013 26.5834Z" stroke="black" stroke-width="1.5" stroke-linecap="round" stroke-linejoin="round"/>
</g>
<defs>
<filter id="filter0_i_1_544" x="0" y="0" width="29" height="33" filterUnits="userSpaceOnUse" color-interpolation-filters="sRGB">
<feFlood flood-opacity="0" result="BackgroundImageFix"/>
<feBlend mode="normal" in="SourceGraphic" in2="BackgroundImageFix" result="shape"/>
<feColorMatrix in="SourceAlpha" type="matrix" values="0 0 0 0 0 0 0 0 0 0 0 0 0 0 0 0 0 0 127 0" result="hardAlpha"/>
<feOffset dy="4"/>
<feGaussianBlur stdDeviation="2"/>
<feComposite in2="hardAlpha" operator="arithmetic" k2="-1" k3="1"/>
<feColorMatrix type="matrix" values="0 0 0 0 0 0 0 0 0 0 0 0 0 0 0 0 0 0 0.25 0"/>
<feBlend mode="normal" in2="shape" result="effect1_innerShadow_1_544"/>
</filter>
</defs>
</svg>
